<?xml version="1.0" encoding="UTF-8" standalone="no"?>
<!-- Created with Inkscape (http://www.inkscape.org/) -->

<svg
   width="210mm"
   height="297mm"
   viewBox="0 0 210 297"
   version="1.1"
   id="svg1"
   xml:space="preserve"
   inkscape:version="1.4.3 (0d15f75, 2025-12-25)"
   sodipodi:docname="JGC Studio Logo Entwurf 02.svg"
   xmlns:inkscape="http://www.inkscape.org/namespaces/inkscape"
   xmlns:sodipodi="http://sodipodi.sourceforge.net/DTD/sodipodi-0.dtd"
   xmlns="http://www.w3.org/2000/svg"
   xmlns:svg="http://www.w3.org/2000/svg"><sodipodi:namedview
     id="namedview1"
     pagecolor="#ffffff"
     bordercolor="#000000"
     borderopacity="0.25"
     inkscape:showpageshadow="2"
     inkscape:pageopacity="0.0"
     inkscape:pagecheckerboard="0"
     inkscape:deskcolor="#d1d1d1"
     inkscape:document-units="mm"
     inkscape:zoom="1.1433196"
     inkscape:cx="572.89318"
     inkscape:cy="426.38996"
     inkscape:window-width="3840"
     inkscape:window-height="2054"
     inkscape:window-x="3829"
     inkscape:window-y="-11"
     inkscape:window-maximized="1"
     inkscape:current-layer="svg1" /><defs
     id="defs1"><inkscape:path-effect
       effect="powerstroke"
       message=""
       id="path-effect13"
       is_visible="true"
       lpeversion="1.3"
       scale_width="1.6"
       interpolator_type="CentripetalCatmullRom"
       interpolator_beta="0.20134228"
       start_linecap_type="round"
       end_linecap_type="round"
       offset_points="0,1.2926031 | 0.26410561,1.9630969 | 1.2658999,4.3184613 | 3,1.0547317 | 2.0845475,2.3109513"
       linejoin_type="extrp_arc"
       miter_limit="4"
       not_jump="false"
       sort_points="true" /><inkscape:path-effect
       effect="powerstroke"
       message=""
       id="path-effect9"
       is_visible="true"
       lpeversion="1.3"
       scale_width="1.6"
       interpolator_type="CentripetalCatmullRom"
       interpolator_beta="0.20134228"
       start_linecap_type="round"
       end_linecap_type="round"
       offset_points="0,1.2926031 | 0.26410561,1.9630969 | 1.2658999,4.3184613 | 3,1.0547317 | 2.0845475,2.3109513"
       linejoin_type="extrp_arc"
       miter_limit="4"
       not_jump="false"
       sort_points="true" /><inkscape:path-effect
       effect="powerstroke"
       message=""
       id="path-effect2"
       is_visible="true"
       lpeversion="1.3"
       scale_width="1.6"
       interpolator_type="CentripetalCatmullRom"
       interpolator_beta="0.20134228"
       start_linecap_type="round"
       end_linecap_type="round"
       offset_points="0,1.2926031 | 0.26410561,1.9630969 | 1.2658999,4.3184613 | 3,1.0547317 | 2.0845475,2.3109513"
       linejoin_type="extrp_arc"
       miter_limit="4"
       not_jump="false"
       sort_points="true" /><inkscape:path-effect
       effect="powerstroke"
       message=""
       id="path-effect14"
       is_visible="true"
       lpeversion="1.3"
       scale_width="1.6"
       interpolator_type="CentripetalCatmullRom"
       interpolator_beta="0.20134228"
       start_linecap_type="round"
       end_linecap_type="round"
       offset_points="0.078146013,1.5634769 | 1.2658999,4.3184613 | 2.9325873,1.1103506"
       linejoin_type="extrp_arc"
       miter_limit="4"
       not_jump="false"
       sort_points="true" /><inkscape:path-effect
       effect="powerstroke"
       message=""
       id="path-effect12"
       is_visible="true"
       lpeversion="1.3"
       scale_width="1.6"
       interpolator_type="CentripetalCatmullRom"
       interpolator_beta="0.20134228"
       start_linecap_type="round"
       end_linecap_type="round"
       offset_points="0.078146013,1.5634769 | 1.2658999,4.3184613 | 2.9325873,1.1103506"
       linejoin_type="extrp_arc"
       miter_limit="4"
       not_jump="false"
       sort_points="true" /><inkscape:path-effect
       effect="powerstroke"
       message=""
       id="path-effect10"
       is_visible="true"
       lpeversion="1.3"
       scale_width="1.6"
       interpolator_type="CentripetalCatmullRom"
       interpolator_beta="0.20134228"
       start_linecap_type="round"
       end_linecap_type="round"
       offset_points="0,1.2926031 | 0.26410561,1.9630969 | 1.2658999,4.3184613 | 3,1.0547317 | 2.0845475,2.3109513"
       linejoin_type="extrp_arc"
       miter_limit="4"
       not_jump="false"
       sort_points="true" /><inkscape:path-effect
       effect="powerstroke"
       message=""
       id="path-effect8"
       is_visible="true"
       lpeversion="1.3"
       scale_width="1.6"
       interpolator_type="CentripetalCatmullRom"
       interpolator_beta="0.20134228"
       start_linecap_type="round"
       end_linecap_type="round"
       offset_points="0.078146013,1.5634769 | 1.2658999,4.3184613 | 2.9325873,1.1103506"
       linejoin_type="extrp_arc"
       miter_limit="4"
       not_jump="false"
       sort_points="true" /><inkscape:path-effect
       effect="powerstroke"
       message=""
       id="path-effect6"
       is_visible="true"
       lpeversion="1.3"
       scale_width="1.6"
       interpolator_type="CentripetalCatmullRom"
       interpolator_beta="0.20134228"
       start_linecap_type="round"
       end_linecap_type="round"
       offset_points="0.078146013,1.5634769 | 1.2684328,3.4028183 | 2.9457401,1.6962401"
       linejoin_type="extrp_arc"
       miter_limit="4"
       not_jump="false"
       sort_points="true" /><inkscape:path-effect
       effect="powerstroke"
       message=""
       id="path-effect4"
       is_visible="true"
       lpeversion="1.3"
       scale_width="1.6"
       interpolator_type="CentripetalCatmullRom"
       interpolator_beta="0.20134228"
       start_linecap_type="round"
       end_linecap_type="round"
       offset_points="0.078146013,1.5634769 | 1.2658999,4.3184613 | 2.8877014,1.432491"
       linejoin_type="extrp_arc"
       miter_limit="4"
       not_jump="false"
       sort_points="true" /></defs><g
     inkscape:groupmode="layer"
     id="layer3"
     inkscape:label="Zeichnung"
     style="display:inline"
     transform="translate(1.1570838,-4.1655018)"><g
       id="g2"
       transform="rotate(-2.5714334,105.29579,144.62009)"><path
         style="fill:#b47d44;fill-rule:nonzero;stroke:none;stroke-width:7.62053;stroke-linecap:round;stroke-dasharray:none;stroke-opacity:1;fill-opacity:1"
         d="m 170.72916,65.025522 c 0,0 0.45985,-0.01082 0,0 -6.06181,0.142616 -20.3013,0.663805 -37.19763,3.921989 -0.70685,0.136304 -1.41689,0.277083 -2.12985,0.422471 -9.43612,1.92423 -21.94283,5.076677 -34.718172,10.556313 -10.954495,4.698634 -22.180221,11.138802 -31.85327,20.024928 -9.246377,8.494167 -16.722488,18.907267 -21.330783,31.481987 -1.750843,4.67224 -2.796694,9.03904 -3.228605,13.11579 -0.460262,4.34435 -0.214884,8.28564 0.560421,11.81995 0.103402,0.47137 0.215995,0.9344 0.33722,1.38909 0.852058,3.19589 2.152301,6.06833 3.772022,8.6148 1.903712,2.99295 4.230019,5.50803 6.768202,7.59617 5.160678,4.24565 11.321631,6.83927 17.355215,8.32833 6.025992,1.48719 12.316528,1.97129 18.147814,1.72725 1.577347,-0.0869 3.117638,-0.21287 4.621836,-0.37148 6.780925,-0.71502 12.9259,-2.3156 18.48978,-4.8213 7.64487,-3.44287 12.08696,-7.60085 13.82023,-9.32451 0.067,-0.0667 0,0 0,0 a 1.6875707,1.6875707 90 0 0 -2.1781,-2.57826 c 0,0 0.0721,-0.0509 0,0 -1.86341,1.3148 -6.40752,4.6003 -13.5802,6.91501 -5.17744,1.67082 -10.851035,2.52514 -16.902717,2.42235 -1.351295,-0.023 -2.730099,-0.10407 -4.136444,-0.24113 -5.117336,-0.4319 -10.352281,-1.70177 -15.064202,-3.68832 -4.762692,-2.00795 -8.865799,-4.68944 -11.946154,-7.90403 -1.495762,-1.56094 -2.755666,-3.25125 -3.760523,-5.07883 -0.851392,-1.54847 -1.551641,-3.25306 -2.050889,-5.14395 -0.07175,-0.27176 -0.140036,-0.54983 -0.204378,-0.83439 -0.47661,-2.10788 -0.751425,-4.63583 -0.577684,-7.67051 0.164034,-2.8651 0.729625,-6.20754 1.921881,-10.08391 3.391501,-10.65644 9.141705,-19.88395 16.782181,-27.86338 8.047219,-8.404211 17.791949,-15.001619 27.839219,-20.135677 11.69717,-5.97714 23.37932,-9.768115 32.5272,-12.130921 0.68297,-0.176404 1.36367,-0.348404 2.04183,-0.516108 16.0232,-3.962432 30.15957,-5.339429 36.08895,-5.818952 0.45043,-0.03643 0,0 0,0 a 2.068165,2.068165 90 0 0 -0.2144,-4.13077 z"
         id="path8"
         sodipodi:nodetypes="cssc"
         inkscape:path-effect="#path-effect10"
         inkscape:original-d="M 170.83636,67.090907 C 123.54545,69.545453 65.60727,86.979913 49.581817,133.52727 c -11.531787,33.4951 16.140552,46.13553 37.697122,46.49766 17.808941,0.29917 29.133551,-6.19558 35.775601,-11.80676"
         transform="rotate(-4.4667733,-31.542601,150.0585)" /><path
         style="fill:#232a43;fill-rule:nonzero;stroke:none;stroke-width:7.62053;stroke-linecap:round;stroke-dasharray:none;stroke-opacity:1;fill-opacity:1"
         d="m 170.72916,65.025522 c 0,0 0.45985,-0.01082 0,0 -6.06181,0.142616 -20.3013,0.663805 -37.19763,3.921989 -0.70685,0.136304 -1.41689,0.277083 -2.12985,0.422471 -9.43612,1.92423 -21.94283,5.076677 -34.718172,10.556313 -10.954495,4.698634 -22.180221,11.138802 -31.85327,20.024928 -9.246377,8.494167 -16.722488,18.907267 -21.330783,31.481987 -1.750843,4.67224 -2.796694,9.03904 -3.228605,13.11579 -0.460262,4.34435 -0.214884,8.28564 0.560421,11.81995 0.103402,0.47137 0.215995,0.9344 0.33722,1.38909 0.852058,3.19589 2.152301,6.06833 3.772022,8.6148 1.903712,2.99295 4.230019,5.50803 6.768202,7.59617 5.160678,4.24565 11.321631,6.83927 17.355215,8.32833 6.025992,1.48719 12.316528,1.97129 18.147814,1.72725 1.577347,-0.0869 3.117638,-0.21287 4.621836,-0.37148 6.780925,-0.71502 12.9259,-2.3156 18.48978,-4.8213 7.64487,-3.44287 12.08696,-7.60085 13.82023,-9.32451 0.067,-0.0667 0,0 0,0 a 1.6875707,1.6875707 90 0 0 -2.1781,-2.57826 c 0,0 0.0721,-0.0509 0,0 -1.86341,1.3148 -6.40752,4.6003 -13.5802,6.91501 -5.17744,1.67082 -10.851035,2.52514 -16.902717,2.42235 -1.351295,-0.023 -2.730099,-0.10407 -4.136444,-0.24113 -5.117336,-0.4319 -10.352281,-1.70177 -15.064202,-3.68832 -4.762692,-2.00795 -8.865799,-4.68944 -11.946154,-7.90403 -1.495762,-1.56094 -2.755666,-3.25125 -3.760523,-5.07883 -0.851392,-1.54847 -1.551641,-3.25306 -2.050889,-5.14395 -0.07175,-0.27176 -0.140036,-0.54983 -0.204378,-0.83439 -0.47661,-2.10788 -0.751425,-4.63583 -0.577684,-7.67051 0.164034,-2.8651 0.729625,-6.20754 1.921881,-10.08391 3.391501,-10.65644 9.141705,-19.88395 16.782181,-27.86338 8.047219,-8.404211 17.791949,-15.001619 27.839219,-20.135677 11.69717,-5.97714 23.37932,-9.768115 32.5272,-12.130921 0.68297,-0.176404 1.36367,-0.348404 2.04183,-0.516108 16.0232,-3.962432 30.15957,-5.339429 36.08895,-5.818952 0.45043,-0.03643 0,0 0,0 a 2.068165,2.068165 90 0 0 -0.2144,-4.13077 z"
         id="path1"
         sodipodi:nodetypes="cssc"
         inkscape:path-effect="#path-effect2"
         inkscape:original-d="M 170.83636,67.090907 C 123.54545,69.545453 65.60727,86.979913 49.581817,133.52727 c -11.531787,33.4951 16.140552,46.13553 37.697122,46.49766 17.808941,0.29917 29.133551,-6.19558 35.775601,-11.80676"
         transform="rotate(175.53323,105.50789,149.95675)" /></g></g></svg>
